<svg width="100" height="100" viewBox="0 0 80 80" fill="none" xmlns="http://www.w3.org/2000/svg">
<path d="M70.935 62.4534C69.2507 58.4639 66.8065 54.8401 63.7386 51.7838C60.6799 48.7187 57.0567 46.2749 53.0689 44.5874C53.0332 44.5695 52.9975 44.5606 52.9618 44.5427C58.5243 40.5249 62.1404 33.9802 62.1404 26.5963C62.1404 14.3642 52.2296 4.45343 39.9975 4.45343C27.7654 4.45343 17.8546 14.3642 17.8546 26.5963C17.8546 33.9802 21.4707 40.5249 27.0332 44.5517C26.9975 44.5695 26.9618 44.5784 26.9261 44.5963C22.9261 46.2838 19.3368 48.7034 16.2564 51.7927C13.1913 54.8514 10.7475 58.4746 9.06 62.4624C7.40217 66.3664 6.50806 70.5521 6.42608 74.7927C6.42369 74.888 6.44041 74.9828 6.47523 75.0716C6.51006 75.1603 6.5623 75.2412 6.62886 75.3094C6.69543 75.3776 6.77498 75.4318 6.86283 75.4688C6.95067 75.5059 7.04504 75.5249 7.14036 75.5249H12.4975C12.8904 75.5249 13.2029 75.2124 13.2118 74.8284C13.3904 67.9356 16.1582 61.4802 21.0511 56.5874C26.1136 51.5249 32.8368 48.7392 39.9975 48.7392C47.1582 48.7392 53.8814 51.5249 58.9439 56.5874C63.8368 61.4802 66.6046 67.9356 66.7832 74.8284C66.7921 75.2213 67.1046 75.5249 67.4975 75.5249H72.8546C72.95 75.5249 73.0443 75.5059 73.1322 75.4688C73.22 75.4318 73.2996 75.3776 73.3661 75.3094C73.4327 75.2412 73.4849 75.1603 73.5198 75.0716C73.5546 74.9828 73.5713 74.888 73.5689 74.7927C73.4796 70.5249 72.5957 66.3731 70.935 62.4534ZM39.9975 41.9534C35.8993 41.9534 32.0421 40.3552 29.1404 37.4534C26.2386 34.5517 24.6404 30.6945 24.6404 26.5963C24.6404 22.4981 26.2386 18.6409 29.1404 15.7392C32.0421 12.8374 35.8993 11.2391 39.9975 11.2391C44.0957 11.2391 47.9529 12.8374 50.8546 15.7392C53.7564 18.6409 55.3546 22.4981 55.3546 26.5963C55.3546 30.6945 53.7564 34.5517 50.8546 37.4534C47.9529 40.3552 44.0957 41.9534 39.9975 41.9534Z" fill="#202020"/>
</svg>
